<?xml version="1.0" encoding="UTF-8" standalone="no"?>
<svg width="203px" height="204px" viewBox="0 0 203 204" version="1.1" xmlns="http://www.w3.org/2000/svg" xmlns:xlink="http://www.w3.org/1999/xlink">
    <!-- Generator: Sketch 3.8.2 (29753) - http://www.bohemiancoding.com/sketch -->
    <title>Group</title>
    <desc>Created with Sketch.</desc>
    <defs></defs>
    <g id="Page-1" stroke="none" stroke-width="1" fill="none" fill-rule="evenodd">
        <g id="Group" transform="translate(-0.054742, -0.007769)">
            <ellipse id="Oval-1" stroke="#979797" fill="#333333" cx="101.390579" cy="102.190808" rx="100.824997" ry="101.277127"></ellipse>
            <circle id="Oval-2" fill="#000000" cx="72.3926951" cy="10.940795" r="1.5"></circle>
            <circle id="Oval-2" fill="#000000" cx="81.3926951" cy="10.940795" r="1.5"></circle>
            <circle id="Oval-2" fill="#000000" cx="89.3926951" cy="10.940795" r="1.5"></circle>
            <circle id="Oval-2" fill="#000000" cx="97.3926951" cy="10.940795" r="1.5"></circle>
            <circle id="Oval-2" fill="#000000" cx="105.392695" cy="10.940795" r="1.5"></circle>
            <circle id="Oval-2" fill="#000000" cx="113.392695" cy="10.940795" r="1.5"></circle>
            <circle id="Oval-2" fill="#000000" cx="121.392695" cy="10.940795" r="1.5"></circle>
            <circle id="Oval-2" fill="#000000" cx="130.392695" cy="10.940795" r="1.5"></circle>
            <circle id="Oval-2" fill="#000000" cx="61.3926951" cy="17.940795" r="1.5"></circle>
            <circle id="Oval-2" fill="#000000" cx="69.3926951" cy="17.940795" r="1.5"></circle>
            <circle id="Oval-2" fill="#000000" cx="77.3926951" cy="17.940795" r="1.5"></circle>
            <circle id="Oval-2" fill="#000000" cx="86.3926951" cy="17.940795" r="1.5"></circle>
            <circle id="Oval-2" fill="#000000" cx="94.3926951" cy="17.940795" r="1.5"></circle>
            <circle id="Oval-2" fill="#000000" cx="102.392695" cy="17.940795" r="1.5"></circle>
            <circle id="Oval-2" fill="#000000" cx="110.392695" cy="17.940795" r="1.5"></circle>
            <circle id="Oval-2" fill="#000000" cx="118.392695" cy="17.940795" r="1.5"></circle>
            <circle id="Oval-2" fill="#000000" cx="126.392695" cy="17.940795" r="1.5"></circle>
            <circle id="Oval-2" fill="#000000" cx="135.392695" cy="17.940795" r="1.5"></circle>
            <circle id="Oval-2" fill="#000000" cx="143.392695" cy="17.940795" r="1.5"></circle>
            <circle id="Oval-2" fill="#000000" cx="46.7650318" cy="24.940795" r="1.5"></circle>
            <circle id="Oval-2" fill="#000000" cx="55.3926951" cy="24.940795" r="1.5"></circle>
            <circle id="Oval-2" fill="#000000" cx="63.3926951" cy="24.940795" r="1.5"></circle>
            <circle id="Oval-2" fill="#000000" cx="71.3926951" cy="24.940795" r="1.5"></circle>
            <circle id="Oval-2" fill="#000000" cx="80.3926951" cy="24.940795" r="1.5"></circle>
            <circle id="Oval-2" fill="#000000" cx="88.3926951" cy="24.940795" r="1.5"></circle>
            <circle id="Oval-2" fill="#000000" cx="96.3926951" cy="24.940795" r="1.5"></circle>
            <circle id="Oval-2" fill="#000000" cx="104.392695" cy="24.940795" r="1.5"></circle>
            <circle id="Oval-2" fill="#000000" cx="112.392695" cy="24.940795" r="1.5"></circle>
            <circle id="Oval-2" fill="#000000" cx="120.392695" cy="24.940795" r="1.5"></circle>
            <circle id="Oval-2" fill="#000000" cx="129.392695" cy="24.940795" r="1.5"></circle>
            <circle id="Oval-2" fill="#000000" cx="137.392695" cy="24.940795" r="1.5"></circle>
            <circle id="Oval-2" fill="#000000" cx="145.392695" cy="24.940795" r="1.5"></circle>
            <circle id="Oval-2" fill="#000000" cx="154.020358" cy="24.940795" r="1.5"></circle>
            <circle id="Oval-2" fill="#000000" cx="162.020358" cy="24.940795" r="1.5"></circle>
            <circle id="Oval-2" fill="#000000" cx="43.7650318" cy="31.940795" r="1.5"></circle>
            <circle id="Oval-2" fill="#000000" cx="51.7650318" cy="31.940795" r="1.5"></circle>
            <circle id="Oval-2" fill="#000000" cx="60.3926951" cy="31.940795" r="1.5"></circle>
            <circle id="Oval-2" fill="#000000" cx="68.3926951" cy="31.940795" r="1.5"></circle>
            <circle id="Oval-2" fill="#000000" cx="76.3926951" cy="31.940795" r="1.5"></circle>
            <circle id="Oval-2" fill="#000000" cx="85.3926951" cy="31.940795" r="1.5"></circle>
            <circle id="Oval-2" fill="#000000" cx="93.3926951" cy="31.940795" r="1.5"></circle>
            <circle id="Oval-2" fill="#000000" cx="101.392695" cy="31.940795" r="1.5"></circle>
            <circle id="Oval-2" fill="#000000" cx="109.392695" cy="31.940795" r="1.5"></circle>
            <circle id="Oval-2" fill="#000000" cx="117.392695" cy="31.940795" r="1.5"></circle>
            <circle id="Oval-2" fill="#000000" cx="125.392695" cy="31.940795" r="1.5"></circle>
            <circle id="Oval-2" fill="#000000" cx="134.392695" cy="31.940795" r="1.5"></circle>
            <circle id="Oval-2" fill="#000000" cx="142.392695" cy="31.940795" r="1.5"></circle>
            <circle id="Oval-2" fill="#000000" cx="150.392695" cy="31.940795" r="1.5"></circle>
            <circle id="Oval-2" fill="#000000" cx="159.020358" cy="31.940795" r="1.5"></circle>
            <circle id="Oval-2" fill="#000000" cx="167.020358" cy="31.940795" r="1.5"></circle>
            <circle id="Oval-2" fill="#000000" cx="31.7650318" cy="38.940795" r="1.5"></circle>
            <circle id="Oval-2" fill="#000000" cx="39.7650318" cy="38.940795" r="1.5"></circle>
            <circle id="Oval-2" fill="#000000" cx="47.7650318" cy="38.940795" r="1.5"></circle>
            <circle id="Oval-2" fill="#000000" cx="56.3926951" cy="38.940795" r="1.5"></circle>
            <circle id="Oval-2" fill="#000000" cx="64.3926951" cy="38.940795" r="1.5"></circle>
            <circle id="Oval-2" fill="#000000" cx="72.3926951" cy="38.940795" r="1.5"></circle>
            <circle id="Oval-2" fill="#000000" cx="81.3926951" cy="38.940795" r="1.5"></circle>
            <circle id="Oval-2" fill="#000000" cx="89.3926951" cy="38.940795" r="1.5"></circle>
            <circle id="Oval-2" fill="#000000" cx="97.3926951" cy="38.940795" r="1.5"></circle>
            <circle id="Oval-2" fill="#000000" cx="105.392695" cy="38.940795" r="1.5"></circle>
            <circle id="Oval-2" fill="#000000" cx="113.392695" cy="38.940795" r="1.5"></circle>
            <circle id="Oval-2" fill="#000000" cx="121.392695" cy="38.940795" r="1.5"></circle>
            <circle id="Oval-2" fill="#000000" cx="130.392695" cy="38.940795" r="1.5"></circle>
            <circle id="Oval-2" fill="#000000" cx="138.392695" cy="38.940795" r="1.5"></circle>
            <circle id="Oval-2" fill="#000000" cx="146.392695" cy="38.940795" r="1.5"></circle>
            <circle id="Oval-2" fill="#000000" cx="155.020358" cy="38.940795" r="1.5"></circle>
            <circle id="Oval-2" fill="#000000" cx="163.020358" cy="38.940795" r="1.5"></circle>
            <circle id="Oval-2" fill="#000000" cx="171.020358" cy="38.940795" r="1.5"></circle>
            <circle id="Oval-2" fill="#000000" cx="27.7650318" cy="45.940795" r="1.5"></circle>
            <circle id="Oval-2" fill="#000000" cx="36.7650318" cy="45.940795" r="1.5"></circle>
            <circle id="Oval-2" fill="#000000" cx="44.7650318" cy="45.940795" r="1.5"></circle>
            <circle id="Oval-2" fill="#000000" cx="52.7650318" cy="45.940795" r="1.5"></circle>
            <circle id="Oval-2" fill="#000000" cx="61.3926951" cy="45.940795" r="1.5"></circle>
            <circle id="Oval-2" fill="#000000" cx="69.3926951" cy="45.940795" r="1.5"></circle>
            <circle id="Oval-2" fill="#000000" cx="77.3926951" cy="45.940795" r="1.5"></circle>
            <circle id="Oval-2" fill="#000000" cx="86.3926951" cy="45.940795" r="1.5"></circle>
            <circle id="Oval-2" fill="#000000" cx="94.3926951" cy="45.940795" r="1.5"></circle>
            <circle id="Oval-2" fill="#000000" cx="102.392695" cy="45.940795" r="1.5"></circle>
            <circle id="Oval-2" fill="#000000" cx="110.392695" cy="45.940795" r="1.5"></circle>
            <circle id="Oval-2" fill="#000000" cx="118.392695" cy="45.940795" r="1.5"></circle>
            <circle id="Oval-2" fill="#000000" cx="126.392695" cy="45.940795" r="1.5"></circle>
            <circle id="Oval-2" fill="#000000" cx="135.392695" cy="45.940795" r="1.5"></circle>
            <circle id="Oval-2" fill="#000000" cx="143.392695" cy="45.940795" r="1.5"></circle>
            <circle id="Oval-2" fill="#000000" cx="151.392695" cy="45.940795" r="1.5"></circle>
            <circle id="Oval-2" fill="#000000" cx="160.020358" cy="45.940795" r="1.5"></circle>
            <circle id="Oval-2" fill="#000000" cx="168.020358" cy="45.940795" r="1.5"></circle>
            <circle id="Oval-2" fill="#000000" cx="176.020358" cy="45.940795" r="1.5"></circle>
            <circle id="Oval-2" fill="#000000" cx="21.7650318" cy="52.940795" r="1.5"></circle>
            <circle id="Oval-2" fill="#000000" cx="30.7650318" cy="52.940795" r="1.5"></circle>
            <circle id="Oval-2" fill="#000000" cx="38.7650318" cy="52.940795" r="1.5"></circle>
            <circle id="Oval-2" fill="#000000" cx="46.7650318" cy="52.940795" r="1.5"></circle>
            <circle id="Oval-2" fill="#000000" cx="55.3926951" cy="52.940795" r="1.5"></circle>
            <circle id="Oval-2" fill="#000000" cx="63.3926951" cy="52.940795" r="1.5"></circle>
            <circle id="Oval-2" fill="#000000" cx="71.3926951" cy="52.940795" r="1.5"></circle>
            <circle id="Oval-2" fill="#000000" cx="80.3926951" cy="52.940795" r="1.5"></circle>
            <circle id="Oval-2" fill="#000000" cx="88.3926951" cy="52.940795" r="1.5"></circle>
            <circle id="Oval-2" fill="#000000" cx="96.3926951" cy="52.940795" r="1.5"></circle>
            <circle id="Oval-2" fill="#000000" cx="104.392695" cy="52.940795" r="1.5"></circle>
            <circle id="Oval-2" fill="#000000" cx="112.392695" cy="52.940795" r="1.5"></circle>
            <circle id="Oval-2" fill="#000000" cx="120.392695" cy="52.940795" r="1.5"></circle>
            <circle id="Oval-2" fill="#000000" cx="129.392695" cy="52.940795" r="1.5"></circle>
            <circle id="Oval-2" fill="#000000" cx="137.392695" cy="52.940795" r="1.5"></circle>
            <circle id="Oval-2" fill="#000000" cx="145.392695" cy="52.940795" r="1.5"></circle>
            <circle id="Oval-2" fill="#000000" cx="154.020358" cy="52.940795" r="1.5"></circle>
            <circle id="Oval-2" fill="#000000" cx="162.020358" cy="52.940795" r="1.5"></circle>
            <circle id="Oval-2" fill="#000000" cx="170.020358" cy="52.940795" r="1.5"></circle>
            <circle id="Oval-2" fill="#000000" cx="179.020358" cy="52.940795" r="1.5"></circle>
            <circle id="Oval-2" fill="#000000" cx="18.7650318" cy="59.940795" r="1.5"></circle>
            <circle id="Oval-2" fill="#000000" cx="26.7650318" cy="59.940795" r="1.5"></circle>
            <circle id="Oval-2" fill="#000000" cx="35.7650318" cy="59.940795" r="1.5"></circle>
            <circle id="Oval-2" fill="#000000" cx="43.7650318" cy="59.940795" r="1.5"></circle>
            <circle id="Oval-2" fill="#000000" cx="51.7650318" cy="59.940795" r="1.5"></circle>
            <circle id="Oval-2" fill="#000000" cx="60.3926951" cy="59.940795" r="1.5"></circle>
            <circle id="Oval-2" fill="#000000" cx="68.3926951" cy="59.940795" r="1.5"></circle>
            <circle id="Oval-2" fill="#000000" cx="76.3926951" cy="59.940795" r="1.5"></circle>
            <circle id="Oval-2" fill="#000000" cx="85.3926951" cy="59.940795" r="1.5"></circle>
            <circle id="Oval-2" fill="#000000" cx="93.3926951" cy="59.940795" r="1.5"></circle>
            <circle id="Oval-2" fill="#000000" cx="101.392695" cy="59.940795" r="1.5"></circle>
            <circle id="Oval-2" fill="#000000" cx="109.392695" cy="59.940795" r="1.5"></circle>
            <circle id="Oval-2" fill="#000000" cx="117.392695" cy="59.940795" r="1.5"></circle>
            <circle id="Oval-2" fill="#000000" cx="125.392695" cy="59.940795" r="1.5"></circle>
            <circle id="Oval-2" fill="#000000" cx="134.392695" cy="59.940795" r="1.5"></circle>
            <circle id="Oval-2" fill="#000000" cx="142.392695" cy="59.940795" r="1.5"></circle>
            <circle id="Oval-2" fill="#000000" cx="150.392695" cy="59.940795" r="1.5"></circle>
            <circle id="Oval-2" fill="#000000" cx="159.020358" cy="59.940795" r="1.5"></circle>
            <circle id="Oval-2" fill="#000000" cx="167.020358" cy="59.940795" r="1.5"></circle>
            <circle id="Oval-2" fill="#000000" cx="175.020358" cy="59.940795" r="1.5"></circle>
            <circle id="Oval-2" fill="#000000" cx="184.020358" cy="59.940795" r="1.5"></circle>
            <circle id="Oval-2" fill="#000000" cx="14.7650318" cy="66.940795" r="1.5"></circle>
            <circle id="Oval-2" fill="#000000" cx="22.7650318" cy="66.940795" r="1.5"></circle>
            <circle id="Oval-2" fill="#000000" cx="31.7650318" cy="66.940795" r="1.5"></circle>
            <circle id="Oval-2" fill="#000000" cx="39.7650318" cy="66.940795" r="1.5"></circle>
            <circle id="Oval-2" fill="#000000" cx="47.7650318" cy="66.940795" r="1.5"></circle>
            <circle id="Oval-2" fill="#000000" cx="56.3926951" cy="66.940795" r="1.5"></circle>
            <circle id="Oval-2" fill="#000000" cx="64.3926951" cy="66.940795" r="1.5"></circle>
            <circle id="Oval-2" fill="#000000" cx="72.3926951" cy="66.940795" r="1.5"></circle>
            <circle id="Oval-2" fill="#000000" cx="81.3926951" cy="66.940795" r="1.5"></circle>
            <circle id="Oval-2" fill="#000000" cx="89.3926951" cy="66.940795" r="1.5"></circle>
            <circle id="Oval-2" fill="#000000" cx="97.3926951" cy="66.940795" r="1.5"></circle>
            <circle id="Oval-2" fill="#000000" cx="105.392695" cy="66.940795" r="1.5"></circle>
            <circle id="Oval-2" fill="#000000" cx="113.392695" cy="66.940795" r="1.5"></circle>
            <circle id="Oval-2" fill="#000000" cx="121.392695" cy="66.940795" r="1.5"></circle>
            <circle id="Oval-2" fill="#000000" cx="130.392695" cy="66.940795" r="1.5"></circle>
            <circle id="Oval-2" fill="#000000" cx="138.392695" cy="66.940795" r="1.5"></circle>
            <circle id="Oval-2" fill="#000000" cx="146.392695" cy="66.940795" r="1.5"></circle>
            <circle id="Oval-2" fill="#000000" cx="155.020358" cy="66.940795" r="1.5"></circle>
            <circle id="Oval-2" fill="#000000" cx="163.020358" cy="66.940795" r="1.5"></circle>
            <circle id="Oval-2" fill="#000000" cx="171.020358" cy="66.940795" r="1.5"></circle>
            <circle id="Oval-2" fill="#000000" cx="180.020358" cy="66.940795" r="1.5"></circle>
            <circle id="Oval-2" fill="#000000" cx="188.020358" cy="66.940795" r="1.5"></circle>
            <circle id="Oval-2" fill="#000000" cx="11.7650318" cy="73.940795" r="1.5"></circle>
            <circle id="Oval-2" fill="#000000" cx="19.7650318" cy="73.940795" r="1.5"></circle>
            <circle id="Oval-2" fill="#000000" cx="27.7650318" cy="73.940795" r="1.5"></circle>
            <circle id="Oval-2" fill="#000000" cx="36.7650318" cy="73.940795" r="1.5"></circle>
            <circle id="Oval-2" fill="#000000" cx="44.7650318" cy="73.940795" r="1.5"></circle>
            <circle id="Oval-2" fill="#000000" cx="52.7650318" cy="73.940795" r="1.5"></circle>
            <circle id="Oval-2" fill="#000000" cx="61.3926951" cy="73.940795" r="1.5"></circle>
            <circle id="Oval-2" fill="#000000" cx="69.3926951" cy="73.940795" r="1.5"></circle>
            <circle id="Oval-2" fill="#000000" cx="77.3926951" cy="73.940795" r="1.5"></circle>
            <circle id="Oval-2" fill="#000000" cx="86.3926951" cy="73.940795" r="1.5"></circle>
            <circle id="Oval-2" fill="#000000" cx="94.3926951" cy="73.940795" r="1.5"></circle>
            <circle id="Oval-2" fill="#000000" cx="102.392695" cy="73.940795" r="1.5"></circle>
            <circle id="Oval-2" fill="#000000" cx="110.392695" cy="73.940795" r="1.5"></circle>
            <circle id="Oval-2" fill="#000000" cx="118.392695" cy="73.940795" r="1.5"></circle>
            <circle id="Oval-2" fill="#000000" cx="126.392695" cy="73.940795" r="1.5"></circle>
            <circle id="Oval-2" fill="#000000" cx="135.392695" cy="73.940795" r="1.5"></circle>
            <circle id="Oval-2" fill="#000000" cx="143.392695" cy="73.940795" r="1.5"></circle>
            <circle id="Oval-2" fill="#000000" cx="151.392695" cy="73.940795" r="1.5"></circle>
            <circle id="Oval-2" fill="#000000" cx="160.020358" cy="73.940795" r="1.5"></circle>
            <circle id="Oval-2" fill="#000000" cx="168.020358" cy="73.940795" r="1.5"></circle>
            <circle id="Oval-2" fill="#000000" cx="176.020358" cy="73.940795" r="1.5"></circle>
            <circle id="Oval-2" fill="#000000" cx="185.020358" cy="73.940795" r="1.5"></circle>
            <circle id="Oval-2" fill="#000000" cx="193.020358" cy="73.940795" r="1.5"></circle>
            <circle id="Oval-2" fill="#000000" cx="13.7650318" cy="80.940795" r="1.5"></circle>
            <circle id="Oval-2" fill="#000000" cx="21.7650318" cy="80.940795" r="1.5"></circle>
            <circle id="Oval-2" fill="#000000" cx="30.7650318" cy="80.940795" r="1.5"></circle>
            <circle id="Oval-2" fill="#000000" cx="38.7650318" cy="80.940795" r="1.5"></circle>
            <circle id="Oval-2" fill="#000000" cx="46.7650318" cy="80.940795" r="1.5"></circle>
            <circle id="Oval-2" fill="#000000" cx="55.3926951" cy="80.940795" r="1.5"></circle>
            <circle id="Oval-2" fill="#000000" cx="63.3926951" cy="80.940795" r="1.5"></circle>
            <circle id="Oval-2" fill="#000000" cx="71.3926951" cy="80.940795" r="1.5"></circle>
            <circle id="Oval-2" fill="#000000" cx="80.3926951" cy="80.940795" r="1.5"></circle>
            <circle id="Oval-2" fill="#000000" cx="88.3926951" cy="80.940795" r="1.5"></circle>
            <circle id="Oval-2" fill="#000000" cx="96.3926951" cy="80.940795" r="1.5"></circle>
            <circle id="Oval-2" fill="#000000" cx="104.392695" cy="80.940795" r="1.5"></circle>
            <circle id="Oval-2" fill="#000000" cx="112.392695" cy="80.940795" r="1.5"></circle>
            <circle id="Oval-2" fill="#000000" cx="120.392695" cy="80.940795" r="1.5"></circle>
            <circle id="Oval-2" fill="#000000" cx="129.392695" cy="80.940795" r="1.5"></circle>
            <circle id="Oval-2" fill="#000000" cx="137.392695" cy="80.940795" r="1.5"></circle>
            <circle id="Oval-2" fill="#000000" cx="145.392695" cy="80.940795" r="1.5"></circle>
            <circle id="Oval-2" fill="#000000" cx="154.020358" cy="80.940795" r="1.5"></circle>
            <circle id="Oval-2" fill="#000000" cx="162.020358" cy="80.940795" r="1.5"></circle>
            <circle id="Oval-2" fill="#000000" cx="170.020358" cy="80.940795" r="1.5"></circle>
            <circle id="Oval-2" fill="#000000" cx="179.020358" cy="80.940795" r="1.5"></circle>
            <circle id="Oval-2" fill="#000000" cx="187.020358" cy="80.940795" r="1.5"></circle>
            <circle id="Oval-2" fill="#000000" cx="195.020358" cy="80.940795" r="1.5"></circle>
            <circle id="Oval-2" fill="#000000" cx="10.7650318" cy="87.940795" r="1.5"></circle>
            <circle id="Oval-2" fill="#000000" cx="18.7650318" cy="87.940795" r="1.5"></circle>
            <circle id="Oval-2" fill="#000000" cx="26.7650318" cy="87.940795" r="1.5"></circle>
            <circle id="Oval-2" fill="#000000" cx="35.7650318" cy="87.940795" r="1.5"></circle>
            <circle id="Oval-2" fill="#000000" cx="43.7650318" cy="87.940795" r="1.5"></circle>
            <circle id="Oval-2" fill="#000000" cx="51.7650318" cy="87.940795" r="1.5"></circle>
            <circle id="Oval-2" fill="#000000" cx="60.3926951" cy="87.940795" r="1.5"></circle>
            <circle id="Oval-2" fill="#000000" cx="68.3926951" cy="87.940795" r="1.5"></circle>
            <circle id="Oval-2" fill="#000000" cx="76.3926951" cy="87.940795" r="1.5"></circle>
            <circle id="Oval-2" fill="#000000" cx="85.3926951" cy="87.940795" r="1.5"></circle>
            <circle id="Oval-2" fill="#000000" cx="93.3926951" cy="87.940795" r="1.5"></circle>
            <circle id="Oval-2" fill="#000000" cx="101.392695" cy="87.940795" r="1.5"></circle>
            <circle id="Oval-2" fill="#000000" cx="109.392695" cy="87.940795" r="1.5"></circle>
            <circle id="Oval-2" fill="#000000" cx="117.392695" cy="87.940795" r="1.5"></circle>
            <circle id="Oval-2" fill="#000000" cx="125.392695" cy="87.940795" r="1.5"></circle>
            <circle id="Oval-2" fill="#000000" cx="134.392695" cy="87.940795" r="1.5"></circle>
            <circle id="Oval-2" fill="#000000" cx="142.392695" cy="87.940795" r="1.5"></circle>
            <circle id="Oval-2" fill="#000000" cx="150.392695" cy="87.940795" r="1.5"></circle>
            <circle id="Oval-2" fill="#000000" cx="159.020358" cy="87.940795" r="1.5"></circle>
            <circle id="Oval-2" fill="#000000" cx="167.020358" cy="87.940795" r="1.5"></circle>
            <circle id="Oval-2" fill="#000000" cx="175.020358" cy="87.940795" r="1.5"></circle>
            <circle id="Oval-2" fill="#000000" cx="184.020358" cy="87.940795" r="1.5"></circle>
            <circle id="Oval-2" fill="#000000" cx="192.020358" cy="87.940795" r="1.5"></circle>
            <circle id="Oval-2" fill="#000000" cx="6.76503178" cy="94.940795" r="1.5"></circle>
            <circle id="Oval-2" fill="#000000" cx="14.7650318" cy="94.940795" r="1.5"></circle>
            <circle id="Oval-2" fill="#000000" cx="22.7650318" cy="94.940795" r="1.5"></circle>
            <circle id="Oval-2" fill="#000000" cx="31.7650318" cy="94.940795" r="1.5"></circle>
            <circle id="Oval-2" fill="#000000" cx="39.7650318" cy="94.940795" r="1.5"></circle>
            <circle id="Oval-2" fill="#000000" cx="47.7650318" cy="94.940795" r="1.5"></circle>
            <circle id="Oval-2" fill="#000000" cx="56.3926951" cy="94.940795" r="1.5"></circle>
            <circle id="Oval-2" fill="#000000" cx="64.3926951" cy="94.940795" r="1.5"></circle>
            <circle id="Oval-2" fill="#000000" cx="72.3926951" cy="94.940795" r="1.5"></circle>
            <circle id="Oval-2" fill="#000000" cx="81.3926951" cy="94.940795" r="1.5"></circle>
            <circle id="Oval-2" fill="#000000" cx="89.3926951" cy="94.940795" r="1.5"></circle>
            <circle id="Oval-2" fill="#000000" cx="97.3926951" cy="94.940795" r="1.5"></circle>
            <circle id="Oval-2" fill="#000000" cx="105.392695" cy="94.940795" r="1.5"></circle>
            <circle id="Oval-2" fill="#000000" cx="113.392695" cy="94.940795" r="1.5"></circle>
            <circle id="Oval-2" fill="#000000" cx="121.392695" cy="94.940795" r="1.5"></circle>
            <circle id="Oval-2" fill="#000000" cx="130.392695" cy="94.940795" r="1.5"></circle>
            <circle id="Oval-2" fill="#000000" cx="138.392695" cy="94.940795" r="1.5"></circle>
            <circle id="Oval-2" fill="#000000" cx="146.392695" cy="94.940795" r="1.5"></circle>
            <circle id="Oval-2" fill="#000000" cx="155.020358" cy="94.940795" r="1.5"></circle>
            <circle id="Oval-2" fill="#000000" cx="163.020358" cy="94.940795" r="1.5"></circle>
            <circle id="Oval-2" fill="#000000" cx="171.020358" cy="94.940795" r="1.5"></circle>
            <circle id="Oval-2" fill="#000000" cx="180.020358" cy="94.940795" r="1.5"></circle>
            <circle id="Oval-2" fill="#000000" cx="188.020358" cy="94.940795" r="1.5"></circle>
            <circle id="Oval-2" fill="#000000" cx="196.020358" cy="94.940795" r="1.5"></circle>
            <circle id="Oval-2" fill="#000000" cx="11.7650318" cy="101.940795" r="1.5"></circle>
            <circle id="Oval-2" fill="#000000" cx="19.7650318" cy="101.940795" r="1.5"></circle>
            <circle id="Oval-2" fill="#000000" cx="27.7650318" cy="101.940795" r="1.5"></circle>
            <circle id="Oval-2" fill="#000000" cx="36.7650318" cy="101.940795" r="1.5"></circle>
            <circle id="Oval-2" fill="#000000" cx="44.7650318" cy="101.940795" r="1.5"></circle>
            <circle id="Oval-2" fill="#000000" cx="52.7650318" cy="101.940795" r="1.5"></circle>
            <circle id="Oval-2" fill="#000000" cx="61.3926951" cy="101.940795" r="1.5"></circle>
            <circle id="Oval-2" fill="#000000" cx="69.3926951" cy="101.940795" r="1.5"></circle>
            <circle id="Oval-2" fill="#000000" cx="77.3926951" cy="101.940795" r="1.5"></circle>
            <circle id="Oval-2" fill="#000000" cx="86.3926951" cy="101.940795" r="1.5"></circle>
            <circle id="Oval-2" fill="#000000" cx="94.3926951" cy="101.940795" r="1.5"></circle>
            <circle id="Oval-2" fill="#000000" cx="102.392695" cy="101.940795" r="1.5"></circle>
            <circle id="Oval-2" fill="#000000" cx="110.392695" cy="101.940795" r="1.5"></circle>
            <circle id="Oval-2" fill="#000000" cx="118.392695" cy="101.940795" r="1.5"></circle>
            <circle id="Oval-2" fill="#000000" cx="126.392695" cy="101.940795" r="1.5"></circle>
            <circle id="Oval-2" fill="#000000" cx="135.392695" cy="101.940795" r="1.5"></circle>
            <circle id="Oval-2" fill="#000000" cx="143.392695" cy="101.940795" r="1.5"></circle>
            <circle id="Oval-2" fill="#000000" cx="151.392695" cy="101.940795" r="1.5"></circle>
            <circle id="Oval-2" fill="#000000" cx="160.020358" cy="101.940795" r="1.5"></circle>
            <circle id="Oval-2" fill="#000000" cx="168.020358" cy="101.940795" r="1.5"></circle>
            <circle id="Oval-2" fill="#000000" cx="176.020358" cy="101.940795" r="1.5"></circle>
            <circle id="Oval-2" fill="#000000" cx="185.020358" cy="101.940795" r="1.5"></circle>
            <circle id="Oval-2" fill="#000000" cx="193.020358" cy="101.940795" r="1.5"></circle>
            <circle id="Oval-2" fill="#000000" cx="13.7650318" cy="108.940795" r="1.5"></circle>
            <circle id="Oval-2" fill="#000000" cx="21.7650318" cy="108.940795" r="1.5"></circle>
            <circle id="Oval-2" fill="#000000" cx="30.7650318" cy="108.940795" r="1.5"></circle>
            <circle id="Oval-2" fill="#000000" cx="38.7650318" cy="108.940795" r="1.5"></circle>
            <circle id="Oval-2" fill="#000000" cx="46.7650318" cy="108.940795" r="1.5"></circle>
            <circle id="Oval-2" fill="#000000" cx="55.3926951" cy="108.940795" r="1.5"></circle>
            <circle id="Oval-2" fill="#000000" cx="63.3926951" cy="108.940795" r="1.5"></circle>
            <circle id="Oval-2" fill="#000000" cx="71.3926951" cy="108.940795" r="1.5"></circle>
            <circle id="Oval-2" fill="#000000" cx="80.3926951" cy="108.940795" r="1.5"></circle>
            <circle id="Oval-2" fill="#000000" cx="88.3926951" cy="108.940795" r="1.5"></circle>
            <circle id="Oval-2" fill="#000000" cx="96.3926951" cy="108.940795" r="1.5"></circle>
            <circle id="Oval-2" fill="#000000" cx="104.392695" cy="108.940795" r="1.5"></circle>
            <circle id="Oval-2" fill="#000000" cx="112.392695" cy="108.940795" r="1.5"></circle>
            <circle id="Oval-2" fill="#000000" cx="120.392695" cy="108.940795" r="1.5"></circle>
            <circle id="Oval-2" fill="#000000" cx="129.392695" cy="108.940795" r="1.5"></circle>
            <circle id="Oval-2" fill="#000000" cx="137.392695" cy="108.940795" r="1.5"></circle>
            <circle id="Oval-2" fill="#000000" cx="145.392695" cy="108.940795" r="1.5"></circle>
            <circle id="Oval-2" fill="#000000" cx="154.020358" cy="108.940795" r="1.5"></circle>
            <circle id="Oval-2" fill="#000000" cx="162.020358" cy="108.940795" r="1.5"></circle>
            <circle id="Oval-2" fill="#000000" cx="170.020358" cy="108.940795" r="1.5"></circle>
            <circle id="Oval-2" fill="#000000" cx="179.020358" cy="108.940795" r="1.5"></circle>
            <circle id="Oval-2" fill="#000000" cx="187.020358" cy="108.940795" r="1.5"></circle>
            <circle id="Oval-2" fill="#000000" cx="195.020358" cy="108.940795" r="1.5"></circle>
            <circle id="Oval-2" fill="#000000" cx="10.7650318" cy="115.940795" r="1.5"></circle>
            <circle id="Oval-2" fill="#000000" cx="18.7650318" cy="115.940795" r="1.5"></circle>
            <circle id="Oval-2" fill="#000000" cx="26.7650318" cy="115.940795" r="1.5"></circle>
            <circle id="Oval-2" fill="#000000" cx="35.7650318" cy="115.940795" r="1.5"></circle>
            <circle id="Oval-2" fill="#000000" cx="43.7650318" cy="115.940795" r="1.5"></circle>
            <circle id="Oval-2" fill="#000000" cx="51.7650318" cy="115.940795" r="1.5"></circle>
            <circle id="Oval-2" fill="#000000" cx="60.3926951" cy="115.940795" r="1.5"></circle>
            <circle id="Oval-2" fill="#000000" cx="68.3926951" cy="115.940795" r="1.5"></circle>
            <circle id="Oval-2" fill="#000000" cx="76.3926951" cy="115.940795" r="1.5"></circle>
            <circle id="Oval-2" fill="#000000" cx="85.3926951" cy="115.940795" r="1.5"></circle>
            <circle id="Oval-2" fill="#000000" cx="93.3926951" cy="115.940795" r="1.5"></circle>
            <circle id="Oval-2" fill="#000000" cx="101.392695" cy="115.940795" r="1.5"></circle>
            <circle id="Oval-2" fill="#000000" cx="109.392695" cy="115.940795" r="1.5"></circle>
            <circle id="Oval-2" fill="#000000" cx="117.392695" cy="115.940795" r="1.5"></circle>
            <circle id="Oval-2" fill="#000000" cx="125.392695" cy="115.940795" r="1.5"></circle>
            <circle id="Oval-2" fill="#000000" cx="134.392695" cy="115.940795" r="1.5"></circle>
            <circle id="Oval-2" fill="#000000" cx="142.392695" cy="115.940795" r="1.5"></circle>
            <circle id="Oval-2" fill="#000000" cx="150.392695" cy="115.940795" r="1.5"></circle>
            <circle id="Oval-2" fill="#000000" cx="159.020358" cy="115.940795" r="1.5"></circle>
            <circle id="Oval-2" fill="#000000" cx="167.020358" cy="115.940795" r="1.5"></circle>
            <circle id="Oval-2" fill="#000000" cx="175.020358" cy="115.940795" r="1.5"></circle>
            <circle id="Oval-2" fill="#000000" cx="184.020358" cy="115.940795" r="1.5"></circle>
            <circle id="Oval-2" fill="#000000" cx="192.020358" cy="115.940795" r="1.5"></circle>
            <circle id="Oval-2" fill="#000000" cx="14.7650318" cy="122.940795" r="1.5"></circle>
            <circle id="Oval-2" fill="#000000" cx="22.7650318" cy="122.940795" r="1.5"></circle>
            <circle id="Oval-2" fill="#000000" cx="31.7650318" cy="122.940795" r="1.5"></circle>
            <circle id="Oval-2" fill="#000000" cx="39.7650318" cy="122.940795" r="1.5"></circle>
            <circle id="Oval-2" fill="#000000" cx="47.7650318" cy="122.940795" r="1.5"></circle>
            <circle id="Oval-2" fill="#000000" cx="56.3926951" cy="122.940795" r="1.5"></circle>
            <circle id="Oval-2" fill="#000000" cx="64.3926951" cy="122.940795" r="1.5"></circle>
            <circle id="Oval-2" fill="#000000" cx="72.3926951" cy="122.940795" r="1.5"></circle>
            <circle id="Oval-2" fill="#000000" cx="81.3926951" cy="122.940795" r="1.5"></circle>
            <circle id="Oval-2" fill="#000000" cx="89.3926951" cy="122.940795" r="1.5"></circle>
            <circle id="Oval-2" fill="#000000" cx="97.3926951" cy="122.940795" r="1.5"></circle>
            <circle id="Oval-2" fill="#000000" cx="105.392695" cy="122.940795" r="1.5"></circle>
            <circle id="Oval-2" fill="#000000" cx="113.392695" cy="122.940795" r="1.5"></circle>
            <circle id="Oval-2" fill="#000000" cx="121.392695" cy="122.940795" r="1.5"></circle>
            <circle id="Oval-2" fill="#000000" cx="130.392695" cy="122.940795" r="1.5"></circle>
            <circle id="Oval-2" fill="#000000" cx="138.392695" cy="122.940795" r="1.5"></circle>
            <circle id="Oval-2" fill="#000000" cx="146.392695" cy="122.940795" r="1.5"></circle>
            <circle id="Oval-2" fill="#000000" cx="155.020358" cy="122.940795" r="1.5"></circle>
            <circle id="Oval-2" fill="#000000" cx="163.020358" cy="122.940795" r="1.5"></circle>
            <circle id="Oval-2" fill="#000000" cx="171.020358" cy="122.940795" r="1.5"></circle>
            <circle id="Oval-2" fill="#000000" cx="180.020358" cy="122.940795" r="1.5"></circle>
            <circle id="Oval-2" fill="#000000" cx="188.020358" cy="122.940795" r="1.5"></circle>
            <circle id="Oval-2" fill="#000000" cx="11.7650318" cy="129.940795" r="1.5"></circle>
            <circle id="Oval-2" fill="#000000" cx="19.7650318" cy="129.940795" r="1.5"></circle>
            <circle id="Oval-2" fill="#000000" cx="27.7650318" cy="129.940795" r="1.5"></circle>
            <circle id="Oval-2" fill="#000000" cx="36.7650318" cy="129.940795" r="1.5"></circle>
            <circle id="Oval-2" fill="#000000" cx="44.7650318" cy="129.940795" r="1.5"></circle>
            <circle id="Oval-2" fill="#000000" cx="52.7650318" cy="129.940795" r="1.5"></circle>
            <circle id="Oval-2" fill="#000000" cx="61.3926951" cy="129.940795" r="1.5"></circle>
            <circle id="Oval-2" fill="#000000" cx="69.3926951" cy="129.940795" r="1.5"></circle>
            <circle id="Oval-2" fill="#000000" cx="77.3926951" cy="129.940795" r="1.5"></circle>
            <circle id="Oval-2" fill="#000000" cx="86.3926951" cy="129.940795" r="1.5"></circle>
            <circle id="Oval-2" fill="#000000" cx="94.3926951" cy="129.940795" r="1.5"></circle>
            <circle id="Oval-2" fill="#000000" cx="102.392695" cy="129.940795" r="1.5"></circle>
            <circle id="Oval-2" fill="#000000" cx="110.392695" cy="129.940795" r="1.5"></circle>
            <circle id="Oval-2" fill="#000000" cx="118.392695" cy="129.940795" r="1.5"></circle>
            <circle id="Oval-2" fill="#000000" cx="126.392695" cy="129.940795" r="1.5"></circle>
            <circle id="Oval-2" fill="#000000" cx="135.392695" cy="129.940795" r="1.5"></circle>
            <circle id="Oval-2" fill="#000000" cx="143.392695" cy="129.940795" r="1.5"></circle>
            <circle id="Oval-2" fill="#000000" cx="151.392695" cy="129.940795" r="1.5"></circle>
            <circle id="Oval-2" fill="#000000" cx="160.020358" cy="129.940795" r="1.5"></circle>
            <circle id="Oval-2" fill="#000000" cx="168.020358" cy="129.940795" r="1.5"></circle>
            <circle id="Oval-2" fill="#000000" cx="176.020358" cy="129.940795" r="1.5"></circle>
            <circle id="Oval-2" fill="#000000" cx="185.020358" cy="129.940795" r="1.5"></circle>
            <circle id="Oval-2" fill="#000000" cx="193.020358" cy="129.940795" r="1.5"></circle>
            <circle id="Oval-2" fill="#000000" cx="13.7650318" cy="136.940795" r="1.5"></circle>
            <circle id="Oval-2" fill="#000000" cx="21.7650318" cy="136.940795" r="1.5"></circle>
            <circle id="Oval-2" fill="#000000" cx="30.7650318" cy="136.940795" r="1.5"></circle>
            <circle id="Oval-2" fill="#000000" cx="38.7650318" cy="136.940795" r="1.5"></circle>
            <circle id="Oval-2" fill="#000000" cx="46.7650318" cy="136.940795" r="1.5"></circle>
            <circle id="Oval-2" fill="#000000" cx="55.3926951" cy="136.940795" r="1.5"></circle>
            <circle id="Oval-2" fill="#000000" cx="63.3926951" cy="136.940795" r="1.5"></circle>
            <circle id="Oval-2" fill="#000000" cx="71.3926951" cy="136.940795" r="1.5"></circle>
            <circle id="Oval-2" fill="#000000" cx="80.3926951" cy="136.940795" r="1.5"></circle>
            <circle id="Oval-2" fill="#000000" cx="88.3926951" cy="136.940795" r="1.5"></circle>
            <circle id="Oval-2" fill="#000000" cx="96.3926951" cy="136.940795" r="1.5"></circle>
            <circle id="Oval-2" fill="#000000" cx="104.392695" cy="136.940795" r="1.5"></circle>
            <circle id="Oval-2" fill="#000000" cx="112.392695" cy="136.940795" r="1.5"></circle>
            <circle id="Oval-2" fill="#000000" cx="120.392695" cy="136.940795" r="1.5"></circle>
            <circle id="Oval-2" fill="#000000" cx="129.392695" cy="136.940795" r="1.5"></circle>
            <circle id="Oval-2" fill="#000000" cx="137.392695" cy="136.940795" r="1.5"></circle>
            <circle id="Oval-2" fill="#000000" cx="145.392695" cy="136.940795" r="1.5"></circle>
            <circle id="Oval-2" fill="#000000" cx="154.020358" cy="136.940795" r="1.5"></circle>
            <circle id="Oval-2" fill="#000000" cx="162.020358" cy="136.940795" r="1.5"></circle>
            <circle id="Oval-2" fill="#000000" cx="170.020358" cy="136.940795" r="1.5"></circle>
            <circle id="Oval-2" fill="#000000" cx="179.020358" cy="136.940795" r="1.5"></circle>
            <circle id="Oval-2" fill="#000000" cx="187.020358" cy="136.940795" r="1.5"></circle>
            <circle id="Oval-2" fill="#000000" cx="18.7650318" cy="143.940795" r="1.5"></circle>
            <circle id="Oval-2" fill="#000000" cx="26.7650318" cy="143.940795" r="1.5"></circle>
            <circle id="Oval-2" fill="#000000" cx="35.7650318" cy="143.940795" r="1.5"></circle>
            <circle id="Oval-2" fill="#000000" cx="43.7650318" cy="143.940795" r="1.5"></circle>
            <circle id="Oval-2" fill="#000000" cx="51.7650318" cy="143.940795" r="1.5"></circle>
            <circle id="Oval-2" fill="#000000" cx="60.3926951" cy="143.940795" r="1.5"></circle>
            <circle id="Oval-2" fill="#000000" cx="68.3926951" cy="143.940795" r="1.5"></circle>
            <circle id="Oval-2" fill="#000000" cx="76.3926951" cy="143.940795" r="1.5"></circle>
            <circle id="Oval-2" fill="#000000" cx="85.3926951" cy="143.940795" r="1.5"></circle>
            <circle id="Oval-2" fill="#000000" cx="93.3926951" cy="143.940795" r="1.5"></circle>
            <circle id="Oval-2" fill="#000000" cx="101.392695" cy="143.940795" r="1.5"></circle>
            <circle id="Oval-2" fill="#000000" cx="109.392695" cy="143.940795" r="1.5"></circle>
            <circle id="Oval-2" fill="#000000" cx="117.392695" cy="143.940795" r="1.5"></circle>
            <circle id="Oval-2" fill="#000000" cx="125.392695" cy="143.940795" r="1.5"></circle>
            <circle id="Oval-2" fill="#000000" cx="134.392695" cy="143.940795" r="1.5"></circle>
            <circle id="Oval-2" fill="#000000" cx="142.392695" cy="143.940795" r="1.5"></circle>
            <circle id="Oval-2" fill="#000000" cx="150.392695" cy="143.940795" r="1.5"></circle>
            <circle id="Oval-2" fill="#000000" cx="159.020358" cy="143.940795" r="1.5"></circle>
            <circle id="Oval-2" fill="#000000" cx="167.020358" cy="143.940795" r="1.5"></circle>
            <circle id="Oval-2" fill="#000000" cx="175.020358" cy="143.940795" r="1.5"></circle>
            <circle id="Oval-2" fill="#000000" cx="184.020358" cy="143.940795" r="1.5"></circle>
            <circle id="Oval-2" fill="#000000" cx="22.7650318" cy="150.940795" r="1.5"></circle>
            <circle id="Oval-2" fill="#000000" cx="31.7650318" cy="150.940795" r="1.5"></circle>
            <circle id="Oval-2" fill="#000000" cx="39.7650318" cy="150.940795" r="1.5"></circle>
            <circle id="Oval-2" fill="#000000" cx="47.7650318" cy="150.940795" r="1.5"></circle>
            <circle id="Oval-2" fill="#000000" cx="56.3926951" cy="150.940795" r="1.5"></circle>
            <circle id="Oval-2" fill="#000000" cx="64.3926951" cy="150.940795" r="1.5"></circle>
            <circle id="Oval-2" fill="#000000" cx="72.3926951" cy="150.940795" r="1.5"></circle>
            <circle id="Oval-2" fill="#000000" cx="81.3926951" cy="150.940795" r="1.5"></circle>
            <circle id="Oval-2" fill="#000000" cx="89.3926951" cy="150.940795" r="1.5"></circle>
            <circle id="Oval-2" fill="#000000" cx="97.3926951" cy="150.940795" r="1.5"></circle>
            <circle id="Oval-2" fill="#000000" cx="105.392695" cy="150.940795" r="1.5"></circle>
            <circle id="Oval-2" fill="#000000" cx="113.392695" cy="150.940795" r="1.5"></circle>
            <circle id="Oval-2" fill="#000000" cx="121.392695" cy="150.940795" r="1.5"></circle>
            <circle id="Oval-2" fill="#000000" cx="130.392695" cy="150.940795" r="1.5"></circle>
            <circle id="Oval-2" fill="#000000" cx="138.392695" cy="150.940795" r="1.5"></circle>
            <circle id="Oval-2" fill="#000000" cx="146.392695" cy="150.940795" r="1.5"></circle>
            <circle id="Oval-2" fill="#000000" cx="155.020358" cy="150.940795" r="1.5"></circle>
            <circle id="Oval-2" fill="#000000" cx="163.020358" cy="150.940795" r="1.5"></circle>
            <circle id="Oval-2" fill="#000000" cx="171.020358" cy="150.940795" r="1.5"></circle>
            <circle id="Oval-2" fill="#000000" cx="180.020358" cy="150.940795" r="1.5"></circle>
            <circle id="Oval-2" fill="#000000" cx="27.7650318" cy="157.940795" r="1.5"></circle>
            <circle id="Oval-2" fill="#000000" cx="36.7650318" cy="157.940795" r="1.5"></circle>
            <circle id="Oval-2" fill="#000000" cx="44.7650318" cy="157.940795" r="1.5"></circle>
            <circle id="Oval-2" fill="#000000" cx="52.7650318" cy="157.940795" r="1.5"></circle>
            <circle id="Oval-2" fill="#000000" cx="61.3926951" cy="157.940795" r="1.5"></circle>
            <circle id="Oval-2" fill="#000000" cx="69.3926951" cy="157.940795" r="1.5"></circle>
            <circle id="Oval-2" fill="#000000" cx="77.3926951" cy="157.940795" r="1.5"></circle>
            <circle id="Oval-2" fill="#000000" cx="86.3926951" cy="157.940795" r="1.5"></circle>
            <circle id="Oval-2" fill="#000000" cx="94.3926951" cy="157.940795" r="1.5"></circle>
            <circle id="Oval-2" fill="#000000" cx="102.392695" cy="157.940795" r="1.5"></circle>
            <circle id="Oval-2" fill="#000000" cx="110.392695" cy="157.940795" r="1.5"></circle>
            <circle id="Oval-2" fill="#000000" cx="118.392695" cy="157.940795" r="1.5"></circle>
            <circle id="Oval-2" fill="#000000" cx="126.392695" cy="157.940795" r="1.5"></circle>
            <circle id="Oval-2" fill="#000000" cx="135.392695" cy="157.940795" r="1.5"></circle>
            <circle id="Oval-2" fill="#000000" cx="143.392695" cy="157.940795" r="1.5"></circle>
            <circle id="Oval-2" fill="#000000" cx="151.392695" cy="157.940795" r="1.5"></circle>
            <circle id="Oval-2" fill="#000000" cx="160.020358" cy="157.940795" r="1.5"></circle>
            <circle id="Oval-2" fill="#000000" cx="168.020358" cy="157.940795" r="1.5"></circle>
            <circle id="Oval-2" fill="#000000" cx="176.020358" cy="157.940795" r="1.5"></circle>
            <circle id="Oval-2" fill="#000000" cx="30.7650318" cy="164.940795" r="1.5"></circle>
            <circle id="Oval-2" fill="#000000" cx="38.7650318" cy="164.940795" r="1.5"></circle>
            <circle id="Oval-2" fill="#000000" cx="46.7650318" cy="164.940795" r="1.5"></circle>
            <circle id="Oval-2" fill="#000000" cx="55.3926951" cy="164.940795" r="1.5"></circle>
            <circle id="Oval-2" fill="#000000" cx="63.3926951" cy="164.940795" r="1.5"></circle>
            <circle id="Oval-2" fill="#000000" cx="71.3926951" cy="164.940795" r="1.5"></circle>
            <circle id="Oval-2" fill="#000000" cx="80.3926951" cy="164.940795" r="1.5"></circle>
            <circle id="Oval-2" fill="#000000" cx="88.3926951" cy="164.940795" r="1.5"></circle>
            <circle id="Oval-2" fill="#000000" cx="96.3926951" cy="164.940795" r="1.5"></circle>
            <circle id="Oval-2" fill="#000000" cx="104.392695" cy="164.940795" r="1.5"></circle>
            <circle id="Oval-2" fill="#000000" cx="112.392695" cy="164.940795" r="1.5"></circle>
            <circle id="Oval-2" fill="#000000" cx="120.392695" cy="164.940795" r="1.5"></circle>
            <circle id="Oval-2" fill="#000000" cx="129.392695" cy="164.940795" r="1.5"></circle>
            <circle id="Oval-2" fill="#000000" cx="137.392695" cy="164.940795" r="1.5"></circle>
            <circle id="Oval-2" fill="#000000" cx="145.392695" cy="164.940795" r="1.5"></circle>
            <circle id="Oval-2" fill="#000000" cx="154.020358" cy="164.940795" r="1.5"></circle>
            <circle id="Oval-2" fill="#000000" cx="162.020358" cy="164.940795" r="1.5"></circle>
            <circle id="Oval-2" fill="#000000" cx="170.020358" cy="164.940795" r="1.5"></circle>
            <circle id="Oval-2" fill="#000000" cx="35.7650318" cy="171.940795" r="1.5"></circle>
            <circle id="Oval-2" fill="#000000" cx="43.7650318" cy="171.940795" r="1.5"></circle>
            <circle id="Oval-2" fill="#000000" cx="51.7650318" cy="171.940795" r="1.5"></circle>
            <circle id="Oval-2" fill="#000000" cx="60.3926951" cy="171.940795" r="1.5"></circle>
            <circle id="Oval-2" fill="#000000" cx="68.3926951" cy="171.940795" r="1.5"></circle>
            <circle id="Oval-2" fill="#000000" cx="76.3926951" cy="171.940795" r="1.5"></circle>
            <circle id="Oval-2" fill="#000000" cx="85.3926951" cy="171.940795" r="1.5"></circle>
            <circle id="Oval-2" fill="#000000" cx="93.3926951" cy="171.940795" r="1.5"></circle>
            <circle id="Oval-2" fill="#000000" cx="101.392695" cy="171.940795" r="1.5"></circle>
            <circle id="Oval-2" fill="#000000" cx="109.392695" cy="171.940795" r="1.5"></circle>
            <circle id="Oval-2" fill="#000000" cx="117.392695" cy="171.940795" r="1.5"></circle>
            <circle id="Oval-2" fill="#000000" cx="125.392695" cy="171.940795" r="1.5"></circle>
            <circle id="Oval-2" fill="#000000" cx="134.392695" cy="171.940795" r="1.5"></circle>
            <circle id="Oval-2" fill="#000000" cx="142.392695" cy="171.940795" r="1.5"></circle>
            <circle id="Oval-2" fill="#000000" cx="150.392695" cy="171.940795" r="1.5"></circle>
            <circle id="Oval-2" fill="#000000" cx="159.020358" cy="171.940795" r="1.5"></circle>
            <circle id="Oval-2" fill="#000000" cx="167.020358" cy="171.940795" r="1.5"></circle>
            <circle id="Oval-2" fill="#000000" cx="47.7650318" cy="178.940795" r="1.5"></circle>
            <circle id="Oval-2" fill="#000000" cx="56.3926951" cy="178.940795" r="1.5"></circle>
            <circle id="Oval-2" fill="#000000" cx="64.3926951" cy="178.940795" r="1.5"></circle>
            <circle id="Oval-2" fill="#000000" cx="72.3926951" cy="178.940795" r="1.5"></circle>
            <circle id="Oval-2" fill="#000000" cx="81.3926951" cy="178.940795" r="1.5"></circle>
            <circle id="Oval-2" fill="#000000" cx="89.3926951" cy="178.940795" r="1.5"></circle>
            <circle id="Oval-2" fill="#000000" cx="97.3926951" cy="178.940795" r="1.5"></circle>
            <circle id="Oval-2" fill="#000000" cx="105.392695" cy="178.940795" r="1.5"></circle>
            <circle id="Oval-2" fill="#000000" cx="113.392695" cy="178.940795" r="1.5"></circle>
            <circle id="Oval-2" fill="#000000" cx="121.392695" cy="178.940795" r="1.5"></circle>
            <circle id="Oval-2" fill="#000000" cx="130.392695" cy="178.940795" r="1.5"></circle>
            <circle id="Oval-2" fill="#000000" cx="138.392695" cy="178.940795" r="1.5"></circle>
            <circle id="Oval-2" fill="#000000" cx="146.392695" cy="178.940795" r="1.5"></circle>
            <circle id="Oval-2" fill="#000000" cx="155.020358" cy="178.940795" r="1.5"></circle>
            <circle id="Oval-2" fill="#000000" cx="61.3926951" cy="185.940795" r="1.5"></circle>
            <circle id="Oval-2" fill="#000000" cx="69.3926951" cy="185.940795" r="1.5"></circle>
            <circle id="Oval-2" fill="#000000" cx="77.3926951" cy="185.940795" r="1.5"></circle>
            <circle id="Oval-2" fill="#000000" cx="86.3926951" cy="185.940795" r="1.5"></circle>
            <circle id="Oval-2" fill="#000000" cx="94.3926951" cy="185.940795" r="1.5"></circle>
            <circle id="Oval-2" fill="#000000" cx="102.392695" cy="185.940795" r="1.5"></circle>
            <circle id="Oval-2" fill="#000000" cx="110.392695" cy="185.940795" r="1.5"></circle>
            <circle id="Oval-2" fill="#000000" cx="118.392695" cy="185.940795" r="1.5"></circle>
            <circle id="Oval-2" fill="#000000" cx="126.392695" cy="185.940795" r="1.5"></circle>
            <circle id="Oval-2" fill="#000000" cx="135.392695" cy="185.940795" r="1.5"></circle>
            <circle id="Oval-2" fill="#000000" cx="143.392695" cy="185.940795" r="1.5"></circle>
            <circle id="Oval-2" fill="#000000" cx="71.3926951" cy="192.940795" r="1.5"></circle>
            <circle id="Oval-2" fill="#000000" cx="80.3926951" cy="192.940795" r="1.5"></circle>
            <circle id="Oval-2" fill="#000000" cx="88.3926951" cy="192.940795" r="1.5"></circle>
            <circle id="Oval-2" fill="#000000" cx="96.3926951" cy="192.940795" r="1.5"></circle>
            <circle id="Oval-2" fill="#000000" cx="104.392695" cy="192.940795" r="1.5"></circle>
            <circle id="Oval-2" fill="#000000" cx="112.392695" cy="192.940795" r="1.5"></circle>
            <circle id="Oval-2" fill="#000000" cx="120.392695" cy="192.940795" r="1.5"></circle>
            <circle id="Oval-2" fill="#000000" cx="129.392695" cy="192.940795" r="1.5"></circle>
        </g>
    </g>
</svg>